<?xml version="1.0" encoding="UTF-8"?>
<svg version="1.1" xmlns="http://www.w3.org/2000/svg" width="377" height="87">
<path d="M0 0 C3.06627706 -0.21665549 6.11727238 -0.37459318 9.1875 -0.5 C10.05181641 -0.56703125 10.91613281 -0.6340625 11.80664062 -0.703125 C14.41894993 -0.78319578 16.47213646 -0.66818941 19 0 C20.3840332 1.5065918 20.3840332 1.5065918 21.5 3.48046875 C21.91638229 4.20729858 22.33276459 4.93412842 22.76176453 5.6829834 C24.78045011 9.4603974 26.74914078 13.25277528 28.64453125 17.09375 C29.05918137 17.92588013 29.47383148 18.75801025 29.90104675 19.61535645 C31.20867418 22.24169694 32.51067417 24.87077977 33.8125 27.5 C34.70470564 29.29445608 35.59728035 31.08872871 36.49023438 32.8828125 C38.66442545 37.25310072 40.83357846 41.62585544 43 46 C43.01030746 45.43845718 43.02061493 44.87691437 43.03123474 44.2983551 C43.13907685 38.47506534 43.25369208 32.65193736 43.37231445 26.82885742 C43.41573507 24.65311047 43.45740471 22.47732786 43.49731445 20.30151367 C43.55484502 17.18136832 43.61858823 14.06140367 43.68359375 10.94140625 C43.70030624 9.96224747 43.71701874 8.98308868 43.73423767 7.97425842 C43.75418289 7.07340012 43.77412811 6.17254181 43.79467773 5.24438477 C43.81022202 4.44718521 43.8257663 3.64998566 43.84178162 2.82862854 C44 1 44 1 45 0 C48.66655195 -0.14300125 52.33144219 -0.04216733 56 0 C57.21870403 11.32089982 57.15289027 22.63416387 57.13037109 34.00634766 C57.12494333 37.28422525 57.13037857 40.56196996 57.13671875 43.83984375 C57.13605912 45.91927114 57.13478036 47.99869844 57.1328125 50.078125 C57.13483673 51.06024963 57.13686096 52.04237427 57.13894653 53.05426025 C57.13421829 54.40266998 57.13421829 54.40266998 57.12939453 55.77832031 C57.12859894 56.57183899 57.12780334 57.36535767 57.12698364 58.18292236 C57 60 57 60 56 61 C54.5112814 61.08669432 53.018555 61.10703494 51.52734375 61.09765625 C50.62822266 61.09443359 49.72910156 61.09121094 48.80273438 61.08789062 C47.38444336 61.07532227 47.38444336 61.07532227 45.9375 61.0625 C44.98810547 61.05798828 44.03871094 61.05347656 43.06054688 61.04882812 C40.70696935 61.0370011 38.35351523 61.02052025 36 61 C35.72882355 60.45542648 35.45764709 59.91085297 35.17825317 59.34977722 C32.35806776 53.68730046 29.53507848 48.02622808 26.71044922 42.3659668 C25.65634179 40.25272002 24.60295232 38.13911496 23.55029297 36.02514648 C22.038016 32.98847723 20.52317056 29.95310141 19.0078125 26.91796875 C18.53691193 25.97100632 18.06601135 25.02404388 17.58084106 24.04838562 C17.14053558 23.16769913 16.7002301 22.28701263 16.24658203 21.37963867 C15.86019562 20.60464523 15.4738092 19.82965179 15.07571411 19.03117371 C13.93124635 16.7876877 13.93124635 16.7876877 12 14 C12.00222061 14.57407089 12.00444122 15.14814178 12.00672913 15.73960876 C12.02878257 21.6925291 12.04390684 27.6454379 12.05493164 33.59838867 C12.05997317 35.82267732 12.06680623 38.04696263 12.07543945 40.27124023 C12.08751298 43.46078309 12.09322996 46.65028229 12.09765625 49.83984375 C12.10281754 50.84087631 12.10797882 51.84190887 12.11329651 52.87327576 C12.11337204 53.79415482 12.11344757 54.71503387 12.11352539 55.66381836 C12.115746 56.47878281 12.11796661 57.29374725 12.12025452 58.13340759 C12 60 12 60 11 61 C9.0390625 61.203125 9.0390625 61.203125 6.625 61.25 C5.83351563 61.27578125 5.04203125 61.3015625 4.2265625 61.328125 C1.40486201 60.91229545 0.71733733 60.25153753 -1 58 C-1.36749268 55.57141113 -1.36749268 55.57141113 -1.35644531 52.65820312 C-1.35944641 51.56697144 -1.36244751 50.47573975 -1.36553955 49.35144043 C-1.35319275 48.17327759 -1.34084595 46.99511475 -1.328125 45.78125 C-1.32625183 44.57182739 -1.32437866 43.36240479 -1.32244873 42.11633301 C-1.31572171 39.5575078 -1.30179449 36.99869298 -1.28125 34.43994141 C-1.25012574 30.51585368 -1.24028271 26.59216761 -1.234375 22.66796875 C-1.22520393 20.18489092 -1.21482783 17.70181719 -1.203125 15.21875 C-1.19887512 14.04058716 -1.19462524 12.86242432 -1.19024658 11.64855957 C-1.18063904 10.55732788 -1.17103149 9.46609619 -1.16113281 8.34179688 C-1.15089081 6.89975891 -1.15089081 6.89975891 -1.14044189 5.42858887 C-1 3 -1 3 0 0 Z " fill="#E35B3C" transform="translate(19,12)"/>
<path d="M0 0 C2.86388852 2.23052856 4.67783144 4.48416504 6 7.828125 C6.75749781 14.80300747 6.36998025 20.64982788 3 26.828125 C3.825 27.529375 4.65 28.230625 5.5 28.953125 C9.12166836 33.24356735 8.51527224 38.13240819 8.46875 43.48828125 C7.82498331 48.07511893 6.12096421 50.67319217 2.9375 53.953125 C-5.26140448 59.18646828 -14.10091979 59.24755453 -23.5625 59.078125 C-25.34237305 59.07039063 -25.34237305 59.07039063 -27.15820312 59.0625 C-35.84527726 58.98284774 -35.84527726 58.98284774 -37 57.828125 C-37.09391296 55.92568738 -37.11743658 54.01974041 -37.11352539 52.11499023 C-37.11344986 50.8937999 -37.11337433 49.67260956 -37.11329651 48.41441345 C-37.10818911 47.07184814 -37.10297311 45.72928325 -37.09765625 44.38671875 C-37.09579199 43.02051342 -37.09436813 41.65430743 -37.09336853 40.2881012 C-37.08954394 36.68610805 -37.07971417 33.084155 -37.06866455 29.48217773 C-37.05844916 25.80908755 -37.05387064 22.13599091 -37.04882812 18.46289062 C-37.03809184 11.25128377 -37.02101614 4.03971 -37 -3.171875 C-25.28258413 -4.9207692 -10.69902684 -6.26896104 0 0 Z M-24 6.828125 C-24 11.778125 -24 16.728125 -24 21.828125 C-20.6278125 21.951875 -20.6278125 21.951875 -17.1875 22.078125 C-15.92292969 22.12453125 -14.65835938 22.1709375 -13.35546875 22.21875 C-9.99015271 22.1503079 -9.99015271 22.1503079 -8.04296875 20.1015625 C-6.8396843 17.4786728 -6.75399344 16.04750864 -7.125 13.203125 C-7.21007812 12.42710938 -7.29515625 11.65109375 -7.3828125 10.8515625 C-7.88195644 8.44891857 -7.88195644 8.44891857 -11 6.828125 C-14.20379124 6.58565717 -14.20379124 6.58565717 -17.6875 6.703125 C-19.770625 6.744375 -21.85375 6.785625 -24 6.828125 Z M-24 31.828125 C-24 37.108125 -24 42.388125 -24 47.828125 C-21.793125 47.910625 -19.58625 47.993125 -17.3125 48.078125 C-16.07113281 48.12453125 -14.82976562 48.1709375 -13.55078125 48.21875 C-9.41666272 47.76395148 -7.86725211 46.78049035 -5 43.828125 C-3.75440285 40.16918337 -3.67432875 38.56088532 -5.25 35.015625 C-6.88630821 32.564216 -6.88630821 32.564216 -10 31.828125 C-14.66967754 31.69222053 -19.32737985 31.78525693 -24 31.828125 Z " fill="#E79B19" transform="translate(174,15.171875)"/>
<path d="M0 0 C0.79075928 0.00523682 1.58151855 0.01047363 2.39624023 0.01586914 C3.67724609 0.02070313 3.67724609 0.02070313 4.98413086 0.02563477 C5.88196289 0.03401367 6.77979492 0.04239258 7.70483398 0.05102539 C8.6065332 0.05553711 9.50823242 0.06004883 10.43725586 0.06469727 C12.67234712 0.07652315 14.90730835 0.09300319 17.14233398 0.11352539 C20.3009485 6.09606678 22.67140146 12.08385934 24.82983398 18.48852539 C25.52246581 20.51198908 26.21517747 22.53542545 26.90795898 24.55883789 C27.26825195 25.61748047 27.62854492 26.67612305 27.99975586 27.7668457 C30.00484464 33.63987071 32.04544859 39.50059938 34.07983398 45.36352539 C34.83933389 47.55610029 35.59847739 49.74879869 36.35717773 51.94165039 C36.67807373 52.86880859 36.99896973 53.7959668 37.32958984 54.7512207 C37.94342658 56.5353854 38.54567334 58.32354347 39.14233398 60.11352539 C37.37234718 60.308855 35.60129119 60.49451421 33.82983398 60.67602539 C32.35063477 60.83264648 32.35063477 60.83264648 30.84155273 60.99243164 C28.14233398 61.11352539 28.14233398 61.11352539 25.14233398 60.11352539 C24.10368303 57.74657152 23.24656303 55.49797044 22.45483398 53.05102539 C22.22989258 52.38780273 22.00495117 51.72458008 21.77319336 51.04125977 C21.21898679 49.40222332 20.67927313 47.75829946 20.14233398 46.11352539 C16.350698 45.94615569 12.55902038 45.77974861 8.76733398 45.61352539 C7.68709961 45.56583008 6.60686523 45.51813477 5.49389648 45.46899414 C4.46264648 45.42387695 3.43139648 45.37875977 2.36889648 45.33227539 C0.93924561 45.26943359 0.93924561 45.26943359 -0.51928711 45.20532227 C-1.96462384 45.14858322 -3.41121602 45.11352539 -4.85766602 45.11352539 C-5.02202148 45.96624023 -5.02202148 45.96624023 -5.18969727 46.83618164 C-6.23704767 51.93669297 -7.65038355 56.39796739 -9.85766602 61.11352539 C-13.48766602 61.11352539 -17.11766602 61.11352539 -20.85766602 61.11352539 C-21.9826358 55.48867647 -21.9826358 55.48867647 -20.65771484 51.7890625 C-20.3702388 50.96728012 -20.08276276 50.14549774 -19.78657532 49.29881287 C-19.46585556 48.42169144 -19.1451358 47.54457001 -18.81469727 46.64086914 C-18.48982834 45.72197403 -18.16495941 44.80307892 -17.83024597 43.8563385 C-16.7883343 40.91701102 -15.72972834 37.98403072 -14.67016602 35.05102539 C-13.97565825 33.10416905 -13.28228676 31.15690697 -12.59008789 29.20922852 C-11.58568845 26.38373359 -10.58006639 23.55874219 -9.56814575 20.7359314 C-7.46829763 14.87393034 -5.45241429 8.99618347 -3.55566406 3.06494141 C-2.51433208 0.15365546 -2.51433208 0.15365546 0 0 Z M6.14233398 11.11352539 C4.9708102 14.57023271 3.80594321 18.02914661 2.64233398 21.48852539 C2.1415332 22.96579102 2.1415332 22.96579102 1.63061523 24.47290039 C1.31479492 25.41391602 0.99897461 26.35493164 0.67358398 27.32446289 C0.38032227 28.19377441 0.08706055 29.06308594 -0.21508789 29.95874023 C-0.95292389 32.05819838 -0.95292389 32.05819838 -0.85766602 34.11352539 C4.75233398 34.11352539 10.36233398 34.11352539 16.14233398 34.11352539 C14.09518504 26.33435941 11.75749451 18.72005829 9.14233398 11.11352539 C8.15233398 11.11352539 7.16233398 11.11352539 6.14233398 11.11352539 Z " fill="#B368C4" transform="translate(317.857666015625,11.886474609375)"/>
<path d="M0 0 C2.6015625 0.0234375 2.6015625 0.0234375 5.625 0.375 C6.62789062 0.48585938 7.63078125 0.59671875 8.6640625 0.7109375 C9.82035156 0.85402344 9.82035156 0.85402344 11 1 C11.88598085 11.01474787 12.08688749 20.91284727 11.875 30.96508789 C11.80754937 36.42812048 12.17947364 40.84072234 14 46 C14.33 46.99 14.66 47.98 15 49 C18.06262036 50.2014361 21.1772132 50.16489052 24.4375 50.1875 C25.36433594 50.20167969 26.29117188 50.21585938 27.24609375 50.23046875 C30.42293818 49.96460517 32.30977268 49.75810739 35 48 C36.85088118 42.17941783 37.32759452 36.76423161 37.4140625 30.6875 C37.43342865 29.83317383 37.4527948 28.97884766 37.4727478 28.09863281 C37.5320053 25.39918662 37.57871122 22.69969651 37.625 20 C37.66322946 18.15753461 37.70228399 16.31508614 37.7421875 14.47265625 C37.83766176 9.98191007 37.92188873 5.49108038 38 1 C41.96 1 45.92 1 50 1 C50.98500411 4.94001645 51.16150513 8.45899937 51.16796875 12.4765625 C51.17296135 13.564496 51.17296135 13.564496 51.17805481 14.67440796 C51.18310964 16.20920175 51.18546358 17.74400649 51.18530273 19.27880859 C51.18747305 21.59622006 51.20559871 23.91314244 51.22460938 26.23046875 C51.30924023 48.15237127 51.30924023 48.15237127 43.53515625 56.58984375 C38.07620974 61.84327698 31.91531038 63.58050246 24.5 64.375 C17.05381178 63.57719412 9.26159146 61.64985139 4 56 C-1.16228688 47.98169467 -2.15489089 40.50248548 -2.16796875 31.171875 C-2.17296135 29.92654999 -2.17296135 29.92654999 -2.17805481 28.65606689 C-2.18309482 26.91134187 -2.18546404 25.1666073 -2.18530273 23.421875 C-2.18750441 20.74463352 -2.2057319 18.06779453 -2.22460938 15.390625 C-2.22754082 13.69270974 -2.22952728 11.99479253 -2.23046875 10.296875 C-2.23765427 9.49481628 -2.24483978 8.69275757 -2.25224304 7.86639404 C-2.22884452 2.22884452 -2.22884452 2.22884452 0 0 Z " fill="#E3AB1C" transform="translate(193,11)"/>
<path d="M0 0 C0.75728394 0.00202423 1.51456787 0.00404846 2.2947998 0.00613403 C3.06787476 0.00517731 3.84094971 0.00422058 4.63745117 0.00323486 C6.27502524 0.00255313 7.91260199 0.00440697 9.5501709 0.00857544 C12.06536901 0.01392382 14.58038854 0.00863027 17.09558105 0.00222778 C18.68282103 0.00288857 20.2700609 0.00416973 21.8572998 0.00613403 C22.99322571 0.00309769 22.99322571 0.00309769 24.15209961 0 C29.46109849 0.02399522 29.46109849 0.02399522 30.5760498 1.13894653 C30.5760498 4.43894653 30.5760498 7.73894653 30.5760498 11.13894653 C22.6560498 11.13894653 14.7360498 11.13894653 6.5760498 11.13894653 C6.5760498 15.42894653 6.5760498 19.71894653 6.5760498 24.13894653 C13.8360498 24.46894653 21.0960498 24.79894653 28.5760498 25.13894653 C28.5760498 28.43894653 28.5760498 31.73894653 28.5760498 35.13894653 C21.3160498 35.46894653 14.0560498 35.79894653 6.5760498 36.13894653 C6.5760498 40.42894653 6.5760498 44.71894653 6.5760498 49.13894653 C7.80581543 49.12734497 9.03558105 49.11574341 10.3026123 49.10379028 C11.93542328 49.09440631 13.5682359 49.08530676 15.2010498 49.07644653 C16.41341309 49.06387817 16.41341309 49.06387817 17.65026855 49.05105591 C22.07946899 49.03305103 26.21488405 49.24271991 30.5760498 50.13894653 C31.0710498 55.08894653 31.0710498 55.08894653 31.5760498 60.13894653 C28.46654452 61.69369918 25.1715795 61.28094177 21.75964355 61.27175903 C20.98798355 61.27271576 20.21632355 61.27367249 19.42127991 61.2746582 C17.78968219 61.27533899 16.15808177 61.27349173 14.52648926 61.26931763 C12.02016159 61.26396067 9.51401255 61.26926972 7.00769043 61.27566528 C5.42500774 61.27500463 3.84232516 61.27372372 2.25964355 61.27175903 C1.50549667 61.27378326 0.75134979 61.2758075 -0.02565002 61.27789307 C-5.30899395 61.25390278 -5.30899395 61.25390278 -6.4239502 60.13894653 C-7.85939229 46.43844925 -7.40634159 32.63377065 -7.0489502 18.88894653 C-7.02762024 18.02145782 -7.00629028 17.15396912 -6.98431396 16.26019287 C-6.92111292 13.77683772 -6.85005806 11.29385956 -6.7755127 8.81082153 C-6.75561279 8.05131699 -6.73571289 7.29181244 -6.71520996 6.5092926 C-6.50685088 0.25929146 -6.25678302 0.02827894 0 0 Z " fill="#EA7C26" transform="translate(95.4239501953125,11.861053466796875)"/>
<path d="M0 0 C3.96 0 7.92 0 12 0 C12.95162372 2.85487115 13.12163139 4.60454317 13.11352539 7.56323242 C13.11344986 8.48396042 13.11337433 9.40468842 13.11329651 10.35331726 C13.10813522 11.34402725 13.10297394 12.33473724 13.09765625 13.35546875 C13.0962413 14.37224197 13.09482635 15.3890152 13.09336853 16.43659973 C13.08776707 19.68692964 13.07521432 22.93719088 13.0625 26.1875 C13.05748519 28.38997296 13.05292225 30.59244701 13.04882812 32.79492188 C13.03864769 38.19666238 13.01907246 43.59825425 13 49 C20.59 49 28.18 49 36 49 C37.04973814 53.19895255 36.72795155 55.79405774 36 60 C31.03396287 60.16724111 26.06777322 60.32783783 21.10131836 60.48217773 C19.41050377 60.53567115 17.71974642 60.59100598 16.02905273 60.64819336 C13.60412953 60.72990041 11.17908006 60.80506395 8.75390625 60.87890625 C7.99348526 60.90594131 7.23306427 60.93297638 6.44960022 60.96083069 C4.63376666 61.01291299 2.81654157 61.01186585 1 61 C0 60 0 60 -0.12025452 57.60191345 C-0.11803391 56.53824051 -0.11581329 55.47456757 -0.11352539 54.37866211 C-0.11344986 53.17749252 -0.11337433 51.97632294 -0.11329651 50.73875427 C-0.10813522 49.4314888 -0.10297394 48.12422333 -0.09765625 46.77734375 C-0.09579198 45.43355868 -0.09436812 44.08977293 -0.09336853 42.74598694 C-0.08954402 39.20317723 -0.07971432 35.6604083 -0.06866455 32.11761475 C-0.05844899 28.50484773 -0.0538706 24.89207416 -0.04882812 21.27929688 C-0.03809198 14.18617961 -0.02049572 7.09309675 0 0 Z " fill="#C6857B" transform="translate(256,12)"/>
<path d="M0 0 C3.12492251 -0.05791844 6.24970766 -0.09356746 9.375 -0.125 C10.26445312 -0.14175781 11.15390625 -0.15851562 12.0703125 -0.17578125 C12.92109375 -0.18222656 13.771875 -0.18867188 14.6484375 -0.1953125 C15.82672119 -0.21102295 15.82672119 -0.21102295 17.02880859 -0.22705078 C19 0 19 0 21 2 C21.6328125 4.8203125 21.6328125 4.8203125 22.125 8.125 C22.29257812 9.22070312 22.46015625 10.31640625 22.6328125 11.4453125 C22.75398438 12.28835937 22.87515625 13.13140625 23 14 C21.68 14.33 20.36 14.66 19 15 C19 14.34 19 13.68 19 13 C18.34 12.67 17.68 12.34 17 12 C16.67 12.66 16.34 13.32 16 14 C15.34 13.67 14.68 13.34 14 13 C14.99 14.485 14.99 14.485 16 16 C15.67 16.99 15.34 17.98 15 19 C14.01 17.35 13.02 15.7 12 14 C12.00222061 14.57407089 12.00444122 15.14814178 12.00672913 15.73960876 C12.02878257 21.6925291 12.04390684 27.6454379 12.05493164 33.59838867 C12.05997317 35.82267732 12.06680623 38.04696263 12.07543945 40.27124023 C12.08751298 43.46078309 12.09322996 46.65028229 12.09765625 49.83984375 C12.10281754 50.84087631 12.10797882 51.84190887 12.11329651 52.87327576 C12.11337204 53.79415482 12.11344757 54.71503387 12.11352539 55.66381836 C12.115746 56.47878281 12.11796661 57.29374725 12.12025452 58.13340759 C12 60 12 60 11 61 C9.0390625 61.203125 9.0390625 61.203125 6.625 61.25 C5.83351563 61.27578125 5.04203125 61.3015625 4.2265625 61.328125 C1.40486201 60.91229545 0.71733733 60.25153753 -1 58 C-1.36749268 55.57141113 -1.36749268 55.57141113 -1.35644531 52.65820312 C-1.35944641 51.56697144 -1.36244751 50.47573975 -1.36553955 49.35144043 C-1.35319275 48.17327759 -1.34084595 46.99511475 -1.328125 45.78125 C-1.32625183 44.57182739 -1.32437866 43.36240479 -1.32244873 42.11633301 C-1.31572171 39.5575078 -1.30179449 36.99869298 -1.28125 34.43994141 C-1.25012574 30.51585368 -1.24028271 26.59216761 -1.234375 22.66796875 C-1.22520393 20.18489092 -1.21482783 17.70181719 -1.203125 15.21875 C-1.19887512 14.04058716 -1.19462524 12.86242432 -1.19024658 11.64855957 C-1.18063904 10.55732788 -1.17103149 9.46609619 -1.16113281 8.34179688 C-1.15089081 6.89975891 -1.15089081 6.89975891 -1.14044189 5.42858887 C-1 3 -1 3 0 0 Z " fill="#E44C41" transform="translate(19,12)"/>
<path d="M0 0 C3.96 0 7.92 0 12 0 C12.98500411 3.94001645 13.16150513 7.45899937 13.16796875 11.4765625 C13.17296135 12.564496 13.17296135 12.564496 13.17805481 13.67440796 C13.18310964 15.20920175 13.18546358 16.74400649 13.18530273 18.27880859 C13.18747305 20.59622006 13.20559871 22.91314244 13.22460938 25.23046875 C13.30933503 47.17692776 13.30933503 47.17692776 5.46484375 55.66015625 C1.13674253 59.83051346 -2.02664579 60.79040862 -8 61 C-8 60.34 -8 59.68 -8 59 C-7.01 58.505 -7.01 58.505 -6 58 C-6 56.35 -6 54.7 -6 53 C-5.34 53 -4.68 53 -4 53 C-4 52.34 -4 51.68 -4 51 C-9.28 51 -14.56 51 -20 51 C-19.67 50.34 -19.34 49.68 -19 49 C-17.89591797 49.03480469 -17.89591797 49.03480469 -16.76953125 49.0703125 C-15.79371094 49.08835938 -14.81789062 49.10640625 -13.8125 49.125 C-12.84957031 49.14820313 -11.88664063 49.17140625 -10.89453125 49.1953125 C-7.63708863 48.97551205 -5.74358866 48.81010512 -3 47 C-1.15065895 41.17876493 -0.67240955 35.76451722 -0.5859375 29.6875 C-0.56657135 28.83317383 -0.5472052 27.97884766 -0.5272522 27.09863281 C-0.4679947 24.39918662 -0.42128878 21.69969651 -0.375 19 C-0.33677054 17.15753461 -0.29771601 15.31508614 -0.2578125 13.47265625 C-0.16233824 8.98191007 -0.07811127 4.49108038 0 0 Z " fill="#D09355" transform="translate(231,12)"/>
<path d="M0 0 C2.31 0 4.62 0 7 0 C8.42500059 3.99000166 9.40075776 7.80530429 10 12 C10.33 12 10.66 12 11 12 C11.07457346 17.26526855 11.12880098 22.53022455 11.16479492 27.79589844 C11.17981184 29.58436443 11.20023158 31.37279403 11.22631836 33.16113281 C11.26301615 35.74293031 11.27979745 38.32423779 11.29296875 40.90625 C11.30845261 41.69616333 11.32393646 42.48607666 11.33988953 43.29992676 C11.34154021 48.83772918 10.19691396 52.91187633 8 58 C2.39 58 -3.22 58 -9 58 C-9 56.02 -9 54.04 -9 52 C-9.495 50.515 -9.495 50.515 -10 49 C-8 48 -6 47 -4 46 C-3.67 46.99 -3.34 47.98 -3 49 C-2.34 49.33 -1.68 49.66 -1 50 C-0.67 33.5 -0.34 17 0 0 Z " fill="#EB6831" transform="translate(65,13)"/>
<path d="M0 0 C3.15861451 5.98254139 5.52906748 11.97033395 7.6875 18.375 C8.38013182 20.39846369 9.07284348 22.42190006 9.765625 24.4453125 C10.12591797 25.50395508 10.48621094 26.56259766 10.85742188 27.65332031 C12.86251066 33.52634532 14.9031146 39.38707399 16.9375 45.25 C17.6969999 47.4425749 18.4561434 49.6352733 19.21484375 51.828125 C19.53573975 52.7552832 19.85663574 53.68244141 20.18725586 54.63769531 C20.8010926 56.42186001 21.40333936 58.21001808 22 60 C20.2300132 60.19532961 18.45895721 60.38098882 16.6875 60.5625 C15.20830078 60.71912109 15.20830078 60.71912109 13.69921875 60.87890625 C11 61 11 61 8 60 C6.95308833 57.69384528 6.10255004 55.51663184 5.3125 53.125 C5.08755859 52.48691406 4.86261719 51.84882812 4.63085938 51.19140625 C3.649565 48.33402021 3 46.04143468 3 43 C3.33 43.66 3.66 44.32 4 45 C6.52733235 45.65555119 6.52733235 45.65555119 9 46 C9.38133299 44.0085944 9.71325582 42.00720923 10 40 C9.505 39.505 9.505 39.505 9 39 C8.92773498 37.14712498 8.9161878 35.29166122 8.9375 33.4375 C8.94652344 32.42558594 8.95554687 31.41367187 8.96484375 30.37109375 C8.97644531 29.58863281 8.98804688 28.80617188 9 28 C7.02 27.34 5.04 26.68 3 26 C2.67 26.33 2.34 26.66 2 27 C1.34 27.66 0.68 28.32 0 29 C-1.89865603 26.02819057 -3.35455571 23.48539917 -4 20 C-4.66 20 -5.32 20 -6 20 C-6.66 17.03 -7.32 14.06 -8 11 C-9.65 11.33 -11.3 11.66 -13 12 C-13 11.34 -13 10.68 -13 10 C-16.04913228 8.98888907 -16.04913228 8.98888907 -19 10 C-18.66142425 6.95281822 -18.16892978 5.2252397 -16.3125 2.75 C-11.56837088 -0.84015177 -5.69446977 -0.09818051 0 0 Z " fill="#B266CE" transform="translate(335,12)"/>
<path d="M0 0 C0.33 0.66 0.66 1.32 1 2 C3.31 2 5.62 2 8 2 C7.67 4.31 7.34 6.62 7 9 C7.33 8.34 7.66 7.68 8 7 C8.66 7 9.32 7 10 7 C10 6.01 10 5.02 10 4 C13.3962299 5.4555271 15.64229409 7.14439347 18 10 C19.21787798 16.79901957 18.2809183 22.98498312 15 29 C15.64839844 29.52464844 16.29679687 30.04929687 16.96484375 30.58984375 C19.59986801 33.71040031 19.56709595 35.52266422 19.5625 39.5625 C19.58441406 40.69816406 19.60632813 41.83382812 19.62890625 43.00390625 C19 46 19 46 16.58984375 47.90234375 C14 49 14 49 12 49 C10.375 47.75 10.375 47.75 9 46 C9 44.68 9 43.36 9 42 C8.34 41.67 7.68 41.34 7 41 C6.5978125 39.7625 6.5978125 39.7625 6.1875 38.5 C5.795625 37.675 5.40375 36.85 5 36 C2.45224694 35.10613836 2.45224694 35.10613836 0 35 C-1.125 28.375 -1.125 28.375 0 25 C0.99 24.67 1.98 24.34 3 24 C4.34807677 20.70298938 4.10070113 17.2645039 4.0625 13.75 C4.04896484 12.13351563 4.04896484 12.13351563 4.03515625 10.484375 C4.02355469 9.66453125 4.01195312 8.8446875 4 8 C3.34 8 2.68 8 2 8 C2 7.01 2 6.02 2 5 C1.01 4.67 0.02 4.34 -1 4 C-0.67 2.68 -0.34 1.36 0 0 Z " fill="#E8AA11" transform="translate(162,13)"/>
<path d="M0 0 C0.87890625 6.15234375 0.87890625 6.15234375 1 8 C0 9 0 9 -3.32641602 9.11352539 C-4.80225556 9.11336629 -6.27810069 9.10767314 -7.75390625 9.09765625 C-8.52935287 9.0962413 -9.3047995 9.09482635 -10.10374451 9.09336853 C-12.59003494 9.08775345 -15.0762366 9.07519846 -17.5625 9.0625 C-19.24413933 9.05748694 -20.92578006 9.0529237 -22.60742188 9.04882812 C-26.73831566 9.03777913 -30.86914276 9.02050445 -35 9 C-34.01 8.34 -33.02 7.68 -32 7 C-31.835 6.175 -31.67 5.35 -31.5 4.5 C-31.335 3.675 -31.17 2.85 -31 2 C-28 0 -28 0 -26 0 C-24.34484375 -0.12568359 -24.34484375 -0.12568359 -22.65625 -0.25390625 C-14.97778594 -0.83518532 -7.65395306 -1.19593017 0 0 Z " fill="#EA8126" transform="translate(126,62)"/>
<path d="M0 0 C0.99 0.33 1.98 0.66 3 1 C4.05908203 3.26904297 4.05908203 3.26904297 5.0078125 6.2421875 C5.35457031 7.30824219 5.70132812 8.37429687 6.05859375 9.47265625 C6.41050781 10.59542969 6.76242187 11.71820313 7.125 12.875 C7.48464844 13.99003906 7.84429687 15.10507812 8.21484375 16.25390625 C8.88186759 18.32492784 9.54397231 20.39754434 10.19970703 22.47216797 C10.78460889 24.31965846 11.38719242 26.16157726 12 28 C10.2300132 28.19532961 8.45895721 28.38098882 6.6875 28.5625 C5.70136719 28.66691406 4.71523438 28.77132812 3.69921875 28.87890625 C1 29 1 29 -2 28 C-3.04691167 25.69384528 -3.89744996 23.51663184 -4.6875 21.125 C-5.02491211 20.16787109 -5.02491211 20.16787109 -5.36914062 19.19140625 C-6.350435 16.33402021 -7 14.04143468 -7 11 C-6.67 11.66 -6.34 12.32 -6 13 C-3.47266765 13.65555119 -3.47266765 13.65555119 -1 14 C-0.61866701 12.0085944 -0.28674418 10.00720923 0 8 C-0.33 7.67 -0.66 7.34 -1 7 C-1.125 4 -1.125 4 -1 1 C-0.67 0.67 -0.34 0.34 0 0 Z " fill="#AA5AE4" transform="translate(345,44)"/>
<path d="M0 0 C0.99 0 1.98 0 3 0 C3 0.99 3 1.98 3 3 C8.28 3 13.56 3 19 3 C19 3.66 19 4.32 19 5 C18.34 5 17.68 5 17 5 C17.33 6.65 17.66 8.3 18 10 C17.01 10.33 16.02 10.66 15 11 C15 11.99 15 12.98 15 14 C8.46459216 15.76632644 1.55892853 14.73756165 -4.48828125 11.78515625 C-6.41647331 10.60358207 -8.25332226 9.43637969 -10 8 C-10 7.67 -10 7.34 -10 7 C-6.37471432 6.79859524 -4.13498292 7.14223235 -1 9 C-0.67 7.35 -0.34 5.7 0 4 C0.66 4 1.32 4 2 4 C1.34 2.68 0.68 1.36 0 0 Z " fill="#DCA235" transform="translate(208,60)"/>
<path d="M0 0 C0.66666667 2.66666667 1.33333333 5.33333333 2 8 C2.99 7.67 3.98 7.34 5 7 C5.99 7 6.98 7 8 7 C9.02019573 6.0206121 10.02149805 5.02104551 11 4 C11.66 4 12.32 4 13 4 C13 4.66 13 5.32 13 6 C12.34 6 11.68 6 11 6 C10.83564453 6.85271484 10.83564453 6.85271484 10.66796875 7.72265625 C9.62061834 12.82316758 8.20728247 17.284442 6 22 C2.37 22 -1.26 22 -5 22 C-6.125 16.375 -6.125 16.375 -4.78515625 12.79296875 C-4.51123047 12.04208984 -4.23730469 11.29121094 -3.95507812 10.51757812 C-3.66052734 9.74865234 -3.36597656 8.97972656 -3.0625 8.1875 C-2.77181641 7.39923828 -2.48113281 6.61097656 -2.18164062 5.79882812 C-1.46550951 3.86175216 -0.73423279 1.93028735 0 0 Z " fill="#B872AD" transform="translate(302,51)"/>
<path d="M0 0 C0.66 0.33 1.32 0.66 2 1 C4.13440381 12.79685834 2.90896816 25.45886422 2.5625 37.375 C2.50914258 39.38279604 2.45640373 41.39060862 2.40429688 43.3984375 C2.27779065 48.26591522 2.13863648 53.13279305 2 58 C13.88 57.67 25.76 57.34 38 57 C38 57.66 38 58.32 38 59 C34.89049471 60.55475264 31.5955297 60.14199524 28.18359375 60.1328125 C27.41193375 60.13376923 26.64027374 60.13472595 25.8452301 60.13571167 C24.21363239 60.13639246 22.58203197 60.1345452 20.95043945 60.13037109 C18.44411179 60.12501413 15.93796275 60.13032319 13.43164062 60.13671875 C11.84895794 60.13605809 10.26627536 60.13477719 8.68359375 60.1328125 C7.92944687 60.13483673 7.17529999 60.13686096 6.39830017 60.13894653 C1.11495624 60.11495624 1.11495624 60.11495624 0 59 C-2.04691792 39.46330563 -0.66839329 19.58650002 0 0 Z " fill="#D27842" transform="translate(89,13)"/>
<path d="M0 0 C2.31 0 4.62 0 7 0 C7 0.33 7 0.66 7 1 C5.35 1 3.7 1 2 1 C2 20.47 2 39.94 2 60 C11.9 60 21.8 60 32 60 C32 60.33 32 60.66 32 61 C28.22715565 61.87661612 24.72916552 62.12868189 20.859375 62.1328125 C19.70695312 62.13410156 18.55453125 62.13539062 17.3671875 62.13671875 C16.17351562 62.13285156 14.97984375 62.12898438 13.75 62.125 C12.54085937 62.12886719 11.33171875 62.13273437 10.0859375 62.13671875 C8.93867188 62.13542969 7.79140625 62.13414063 6.609375 62.1328125 C5.55717773 62.13168457 4.50498047 62.13055664 3.42089844 62.12939453 C1 62 1 62 0 61 C-0.09391296 59.09756238 -0.11743658 57.19161541 -0.11352539 55.28686523 C-0.11344986 54.0656749 -0.11337433 52.84448456 -0.11329651 51.58628845 C-0.10818911 50.24372314 -0.10297311 48.90115825 -0.09765625 47.55859375 C-0.09579199 46.19238842 -0.09436813 44.82618243 -0.09336853 43.4599762 C-0.08954394 39.85798305 -0.07971417 36.25603 -0.06866455 32.65405273 C-0.05844916 28.98096255 -0.05387064 25.30786591 -0.04882812 21.63476562 C-0.03809184 14.42315877 -0.02101614 7.211585 0 0 Z " fill="#D89239" transform="translate(137,12)"/>
<path d="M0 0 C2.6015625 0.0234375 2.6015625 0.0234375 5.625 0.375 C6.62789062 0.48585938 7.63078125 0.59671875 8.6640625 0.7109375 C9.82035156 0.85402344 9.82035156 0.85402344 11 1 C11.88079511 10.95613043 12.08931747 20.79591765 11.875 30.78930664 C11.79949307 36.86289518 12.46018845 42.11852374 14 48 C13.01 48 12.02 48 11 48 C10.07312675 45.21938025 9.87806604 43.57948141 9.88647461 40.7121582 C9.88655014 39.85149246 9.88662567 38.99082672 9.88670349 38.1040802 C9.89186478 37.17899155 9.89702606 36.25390289 9.90234375 35.30078125 C9.9037587 34.35059616 9.90517365 33.40041107 9.90663147 32.4214325 C9.91223125 29.38508971 9.92478368 26.34882052 9.9375 23.3125 C9.94251503 21.25455836 9.94707793 19.19661556 9.95117188 17.13867188 C9.9622006 12.09241954 9.97946507 7.04622225 10 2 C6.7 2 3.4 2 0 2 C0.04431477 7.97791025 0.11431863 13.95478057 0.20751953 19.93212891 C0.23564035 21.96296892 0.25689886 23.99391657 0.27099609 26.02490234 C0.29254898 28.95465855 0.33926222 31.88313265 0.390625 34.8125 C0.39185364 35.71178223 0.39308228 36.61106445 0.39434814 37.53759766 C0.5186282 42.95971182 1.3950216 46.66605819 4.24407959 51.31518555 C5 53 5 53 4 56 C3.17724328 54.46378265 2.36727423 52.92071368 1.5625 51.375 C1.11003906 50.51648437 0.65757812 49.65796875 0.19140625 48.7734375 C-2.24880897 43.0929365 -2.15945088 37.24908396 -2.16796875 31.171875 C-2.17296135 29.92654999 -2.17296135 29.92654999 -2.17805481 28.65606689 C-2.18309482 26.91134187 -2.18546404 25.1666073 -2.18530273 23.421875 C-2.18750441 20.74463352 -2.2057319 18.06779453 -2.22460938 15.390625 C-2.22754082 13.69270974 -2.22952728 11.99479253 -2.23046875 10.296875 C-2.23765427 9.49481628 -2.24483978 8.69275757 -2.25224304 7.86639404 C-2.22884452 2.22884452 -2.22884452 2.22884452 0 0 Z M8 45 C8.66 45.33 9.32 45.66 10 46 C8.02 46.99 8.02 46.99 6 48 C6 47.34 6 46.68 6 46 C6.66 45.67 7.32 45.34 8 45 Z " fill="#D2A03F" transform="translate(193,11)"/>
<path d="M0 0 C0.33 0 0.66 0 1 0 C1.0814222 2.22855574 1.13938079 4.45797655 1.1875 6.6875 C1.23970703 8.54955078 1.23970703 8.54955078 1.29296875 10.44921875 C0.8746282 15.51950626 -0.79638529 17.94316757 -4.5625 21.25 C-8.9741701 24.41735289 -11.65703015 24.08617693 -17 24 C-15.68 23.67 -14.36 23.34 -13 23 C-13 22.01 -13 21.02 -13 20 C-12.34 20 -11.68 20 -11 20 C-11 18.68 -11 17.36 -11 16 C-11.66 16 -12.32 16 -13 16 C-12.34 13.03 -11.68 10.06 -11 7 C-10.67 8.32 -10.34 9.64 -10 11 C-9.01 11.33 -8.02 11.66 -7 12 C-7 12.66 -7 13.32 -7 14 C-6.21625 13.505 -5.4325 13.01 -4.625 12.5 C-2 11 -2 11 0 11 C0 7.37 0 3.74 0 0 Z " fill="#E6AB13" transform="translate(181,48)"/>
<path d="M0 0 C2.3125 -0.3125 2.3125 -0.3125 5 0 C7.24243223 2.86103423 8 4.34076304 8 8 C8.62390625 8.06058594 9.2478125 8.12117188 9.890625 8.18359375 C12 9 12 9 13.046875 11.28515625 C13.27890625 12.20167969 13.5109375 13.11820313 13.75 14.0625 C13.99234375 14.98160156 14.2346875 15.90070312 14.484375 16.84765625 C14.65453125 17.55792969 14.8246875 18.26820312 15 19 C14.34 19 13.68 19 13 19 C12.938125 18.071875 12.938125 18.071875 12.875 17.125 C12.441875 16.073125 12.441875 16.073125 12 15 C9.00384054 13.6954344 9.00384054 13.6954344 6 13 C5.67 13.33 5.34 13.66 5 14 C4.34 14.66 3.68 15.32 3 16 C0.12507678 11.55693684 -2 7.37045153 -2 2 C-1.34 2 -0.68 2 0 2 C0 1.34 0 0.68 0 0 Z " fill="#B05FDA" transform="translate(332,25)"/>
<path d="M0 0 C5.28 0 10.56 0 16 0 C16 3.3 16 6.6 16 10 C9.4 10 2.8 10 -4 10 C-4 9.34 -4 8.68 -4 8 C-0.37 8 3.26 8 7 8 C6.67 6.68 6.34 5.36 6 4 C6.33 3.67 6.66 3.34 7 3 C4.69 2.67 2.38 2.34 0 2 C0 1.34 0 0.68 0 0 Z " fill="#E08833" transform="translate(108,37)"/>
<path d="M0 0 C2.83203125 0.03255208 5.6640625 0.06510417 8.49609375 0.09765625 C8.49609375 4.71765625 8.49609375 9.33765625 8.49609375 14.09765625 C8.16609375 14.09765625 7.83609375 14.09765625 7.49609375 14.09765625 C6.83609375 10.13765625 6.17609375 6.17765625 5.49609375 2.09765625 C3.18609375 1.76765625 0.87609375 1.43765625 -1.50390625 1.09765625 C-1.50390625 16.93765625 -1.50390625 32.77765625 -1.50390625 49.09765625 C-2.16390625 49.09765625 -2.82390625 49.09765625 -3.50390625 49.09765625 C-3.52917515 42.28003731 -3.54673869 35.46243036 -3.55883789 28.64477539 C-3.56387958 26.32348174 -3.57071276 24.00219128 -3.5793457 21.6809082 C-3.5914185 18.3523683 -3.59713604 15.02387023 -3.6015625 11.6953125 C-3.60672379 10.65053238 -3.61188507 9.60575226 -3.61720276 8.52931213 C-3.61727829 7.56839157 -3.61735382 6.60747101 -3.61743164 5.61743164 C-3.61965225 4.76693741 -3.62187286 3.91644318 -3.62416077 3.04017639 C-3.43977548 0.06172576 -2.99555592 0.11683135 0 0 Z " fill="#CC6847" transform="translate(66.50390625,11.90234375)"/>
<path d="M0 0 C0.33 2.31 0.66 4.62 1 7 C-0.65 7.33 -2.3 7.66 -4 8 C-3.67 9.32 -3.34 10.64 -3 12 C-5.64 12.33 -8.28 12.66 -11 13 C-11 12.34 -11 11.68 -11 11 C-10.34 10.67 -9.68 10.34 -9 10 C-9 8.35 -9 6.7 -9 5 C-8.34 5 -7.68 5 -7 5 C-7 4.34 -7 3.68 -7 3 C-12.28 3 -17.56 3 -23 3 C-22.67 2.34 -22.34 1.68 -22 1 C-21.24074219 1.02320313 -20.48148438 1.04640625 -19.69921875 1.0703125 C-18.20841797 1.09738281 -18.20841797 1.09738281 -16.6875 1.125 C-15.20830078 1.15980469 -15.20830078 1.15980469 -13.69921875 1.1953125 C-7.955671 0.7797157 -6.26384174 -1.0268593 0 0 Z " fill="#D59A4C" transform="translate(234,60)"/>
<path d="M0 0 C22.79369408 -0.84075101 22.79369408 -0.84075101 30.75 5.6875 C31.86375 6.8321875 31.86375 6.8321875 33 8 C32.67 8.66 32.34 9.32 32 10 C30.35 8.68 28.7 7.36 27 6 C27 6.99 27 7.98 27 9 C26.34 9 25.68 9 25 9 C25.33 9.99 25.66 10.98 26 12 C25.01 11.67 24.02 11.34 23 11 C23.57584432 8.61435923 24.22227595 6.33317216 25 4 C22.69 4 20.38 4 18 4 C18 3.34 18 2.68 18 2 C12.06 2 6.12 2 0 2 C0 1.34 0 0.68 0 0 Z " fill="#D79E2F" transform="translate(145,11)"/>
<path d="M0 0 C2.64 0.33 5.28 0.66 8 1 C8.87890625 7.15234375 8.87890625 7.15234375 9 9 C8 10 8 10 5.93359375 10.09765625 C2.46679688 10.04882812 2.46679688 10.04882812 -1 10 C-0.67 6.7 -0.34 3.4 0 0 Z " fill="#E18C27" transform="translate(118,61)"/>
<path d="M0 0 C0.33 0 0.66 0 1 0 C1 3.3 1 6.6 1 10 C-6.92 10 -14.84 10 -23 10 C-23.33 12.31 -23.66 14.62 -24 17 C-24.33 17 -24.66 17 -25 17 C-25 13.04 -25 9.08 -25 5 C-24.01 5.33 -23.02 5.66 -22 6 C-22 6.66 -22 7.32 -22 8 C-14.74 8 -7.48 8 0 8 C0 5.36 0 2.72 0 0 Z " fill="#D1833F" transform="translate(125,13)"/>
<path d="M0 0 C0.99 0.33 1.98 0.66 3 1 C3 1.66 3 2.32 3 3 C5.64 3 8.28 3 11 3 C10.67 4.98 10.34 6.96 10 9 C7.69 9 5.38 9 3 9 C3 8.34 3 7.68 3 7 C1.68 6.67 0.36 6.34 -1 6 C-0.67 4.02 -0.34 2.04 0 0 Z " fill="#EC871E" transform="translate(105,36)"/>
<path d="M0 0 C0.9097643 3.07045451 1.17299981 5.79950343 1 9 C0 10 0 10 -1.76586914 10.11352539 C-2.51473389 10.10828857 -3.26359863 10.10305176 -4.03515625 10.09765625 C-4.84404297 10.09443359 -5.65292969 10.09121094 -6.48632812 10.08789062 C-7.33646484 10.07951172 -8.18660156 10.07113281 -9.0625 10.0625 C-9.91650391 10.05798828 -10.77050781 10.05347656 -11.65039062 10.04882812 C-13.76695663 10.03700373 -15.88348685 10.01906769 -18 10 C-17.67 9.34 -17.34 8.68 -17 8 C-12.05 8 -7.1 8 -2 8 C-1.67 6.02 -1.34 4.04 -1 2 C-0.67 1.34 -0.34 0.68 0 0 Z " fill="#CF6445" transform="translate(75,63)"/>
<path d="M0 0 C0.33 0.66 0.66 1.32 1 2 C2.33076989 2.34342449 3.66431979 2.67619874 5 3 C5.66 3.66 6.32 4.32 7 5 C6.94140625 7.05859375 6.94140625 7.05859375 6.5625 9.4375 C6.06662962 12.60585075 5.95707046 13.87121138 7 17 C6.34 17 5.68 17 5 17 C4.16080602 14.73117913 3.32848276 12.46022973 2.5 10.1875 C2.26152344 9.54490234 2.02304687 8.90230469 1.77734375 8.24023438 C0.72931254 5.35066261 0 3.09923939 0 0 Z " fill="#A964DC" transform="translate(338,55)"/>
<path d="M0 0 C2.73000671 2.73000671 3.51097906 5.91345467 4.6875 9.5 C4.92533203 10.18964844 5.16316406 10.87929688 5.40820312 11.58984375 C7.12393424 16.75213151 7.12393424 16.75213151 6 19 C2.76743757 17.38371879 2.32663296 14.23006285 1 11 C0.67 10.67 0.34 10.34 0 10 C-0.07205511 8.31391034 -0.08386068 6.62499341 -0.0625 4.9375 C-0.05347656 4.01839844 -0.04445313 3.09929688 -0.03515625 2.15234375 C-0.02355469 1.44207031 -0.01195312 0.73179688 0 0 Z " fill="#A062CE" transform="translate(336,15)"/>
<path d="M0 0 C1.07174763 3.65188082 0.76411467 6.26432828 0 10 C-0.66 10 -1.32 10 -2 10 C-2 12.31 -2 14.62 -2 17 C-1.34 17.33 -0.68 17.66 0 18 C-3.75 20 -3.75 20 -6 20 C-5.2531799 15.57916835 -3.88289994 11.41843259 -2.4375 7.1875 C-2.20353516 6.49462891 -1.96957031 5.80175781 -1.72851562 5.08789062 C-1.15508324 3.39099886 -0.57791831 1.69536922 0 0 Z " fill="#B271A2" transform="translate(302,51)"/>
<path d="M0 0 C4.29 0 8.58 0 13 0 C14.04973814 4.19895255 13.72795155 6.79405774 13 11 C12.01 10.34 11.02 9.68 10 9 C10.33 7.02 10.66 5.04 11 3 C10.34 3 9.68 3 9 3 C9 2.34 9 1.68 9 1 C6.03 1 3.06 1 0 1 C0 0.67 0 0.34 0 0 Z " fill="#B17997" transform="translate(279,61)"/>
<path d="M0 0 C6.27 0 12.54 0 19 0 C19.66 1.32 20.32 2.64 21 4 C18.36 3.67 15.72 3.34 13 3 C13 2.34 13 1.68 13 1 C6.565 1.495 6.565 1.495 0 2 C0 1.34 0 0.68 0 0 Z " fill="#CE584F" transform="translate(19,12)"/>
<path d="M0 0 C2.18614424 2.18614424 2.68256535 3.53879949 3.625 6.4375 C3.88539063 7.21996094 4.14578125 8.00242187 4.4140625 8.80859375 C5 11 5 11 5 14 C3.35 14 1.7 14 0 14 C0.185625 13.38125 0.37125 12.7625 0.5625 12.125 C1.23686176 9.95839822 1.23686176 9.95839822 0 8 C0.66 8 1.32 8 2 8 C1.34 7.01 0.68 6.02 0 5 C-0.125 2.3125 -0.125 2.3125 0 0 Z " fill="#9F5CD5" transform="translate(347,47)"/>
<path d="M0 0 C1.65 1.65 3.3 3.3 5 5 C4.4225 5.2475 3.845 5.495 3.25 5.75 C0.6997003 7.16683317 -1.01785701 8.87627537 -3 11 C-2.69078116 9.54096742 -2.37751201 8.08279278 -2.0625 6.625 C-1.88847656 5.81289063 -1.71445312 5.00078125 -1.53515625 4.1640625 C-1 2 -1 2 0 0 Z " fill="#B872B1" transform="translate(307,37)"/>
<path d="M0 0 C0.33 0 0.66 0 1 0 C1.0814222 2.22855574 1.13938079 4.45797655 1.1875 6.6875 C1.22230469 7.92886719 1.25710937 9.17023437 1.29296875 10.44921875 C0.98212299 14.21666932 0.2772857 16.02794917 -2 19 C-2.66 19.33 -3.32 19.66 -4 20 C-3.34 17.03 -2.68 14.06 -2 11 C-1.34 11 -0.68 11 0 11 C0 7.37 0 3.74 0 0 Z " fill="#DAA631" transform="translate(181,48)"/>
<path d="M0 0 C1.79275866 3.11910856 2.34290718 5.67682428 2.625 9.25 C2.69976562 10.14203125 2.77453125 11.0340625 2.8515625 11.953125 C2.90054688 12.62859375 2.94953125 13.3040625 3 14 C2.34 14 1.68 14 1 14 C-2.25601751 5.96498906 -2.25601751 5.96498906 -1.1875 1.9375 C-0.795625 1.298125 -0.40375 0.65875 0 0 Z " fill="#D8793A" transform="translate(99,47)"/>
<path d="M0 0 C0.33 0.66 0.66 1.32 1 2 C2.98 2 4.96 2 7 2 C7 2.99 7 3.98 7 5 C4.03 5 1.06 5 -2 5 C-1.34 3.35 -0.68 1.7 0 0 Z " fill="#EC8D1E" transform="translate(119,66)"/>
<path d="M0 0 C4.33168317 -0.26252625 7.8803623 0.70756464 12 2 C12 2.66 12 3.32 12 4 C7.18061476 4.23509196 3.53701494 3.45184478 -1 2 C-0.67 1.34 -0.34 0.68 0 0 Z " fill="#D09E4C" transform="translate(208,71)"/>
<path d="M0 0 C0.99 0.33 1.98 0.66 3 1 C3 2.32 3 3.64 3 5 C3.66 5 4.32 5 5 5 C5 5.66 5 6.32 5 7 C3.35 7 1.7 7 0 7 C0 4.69 0 2.38 0 0 Z " fill="#AA5DF4" transform="translate(350,65)"/>
<path d="M0 0 C2.1875 -0.3125 2.1875 -0.3125 5 0 C7.8125 2.5 7.8125 2.5 10 5 C9.01 5.495 9.01 5.495 8 6 C6.0546875 5.0390625 6.0546875 5.0390625 3.875 3.625 C3.15054688 3.16351563 2.42609375 2.70203125 1.6796875 2.2265625 C1.12539062 1.82179688 0.57109375 1.41703125 0 1 C0 0.67 0 0.34 0 0 Z " fill="#DAAD40" transform="translate(198,67)"/>
<path d="M0 0 C3.57104439 1.87949705 5.54744301 3.17053157 7 7 C6.01 6.34 5.02 5.68 4 5 C0.87478167 4.83300768 0.87478167 4.83300768 -2 5 C-1.34 3.35 -0.68 1.7 0 0 Z " fill="#DAA423" transform="translate(174,41)"/>
<path d="M0 0 C0.99 0.33 1.98 0.66 3 1 C3.94921875 3.06640625 3.94921875 3.06640625 4.6875 5.5625 C4.93886719 6.38878906 5.19023437 7.21507812 5.44921875 8.06640625 C5.63097656 8.70449219 5.81273437 9.34257812 6 10 C5.34 10.66 4.68 11.32 4 12 C3.89042969 11.36191406 3.78085937 10.72382813 3.66796875 10.06640625 C3.50941406 9.24011719 3.35085938 8.41382813 3.1875 7.5625 C2.96126953 6.32693359 2.96126953 6.32693359 2.73046875 5.06640625 C2.48941406 4.38449219 2.24835938 3.70257812 2 3 C1.01 2.67 0.02 2.34 -1 2 C-0.67 1.34 -0.34 0.68 0 0 Z " fill="#A76AC0" transform="translate(325,20)"/>
<path d="M0 0 C6.27 0 12.54 0 19 0 C19 0.33 19 0.66 19 1 C16.72926348 1.16798051 14.45840707 1.33434113 12.1875 1.5 C10.29064453 1.63921875 10.29064453 1.63921875 8.35546875 1.78125 C6.24021483 1.91914781 4.11974408 2 2 2 C1.34 1.34 0.68 0.68 0 0 Z " fill="#AB6DBB" transform="translate(315,46)"/>
<path d="M0 0 C2.86453858 3.41016497 4.34703566 6.90694544 6 11 C5.34 11.66 4.68 12.32 4 13 C3.32694982 11.39850114 2.66177773 9.79368971 2 8.1875 C1.62875 7.29417969 1.2575 6.40085937 0.875 5.48046875 C0 3 0 3 0 0 Z " fill="#A56AC7" transform="translate(330,32)"/>
<path d="M0 0 C1.46015291 0.28241641 2.91809793 0.57626614 4.375 0.875 C5.18710938 1.03742187 5.99921875 1.19984375 6.8359375 1.3671875 C9 2 9 2 11 4 C7.37 3.67 3.74 3.34 0 3 C0 2.01 0 1.02 0 0 Z " fill="#DEA438" transform="translate(163,12)"/>
<path d="M0 0 C1.99097846 2.98646769 2.94124926 5.59687262 4 9 C3.34 9 2.68 9 2 9 C1.87625 8.071875 1.87625 8.071875 1.75 7.125 C1.18741541 4.81562433 1.18741541 4.81562433 -1.0625 3.75 C-1.701875 3.5025 -2.34125 3.255 -3 3 C-2.01 2.01 -1.02 1.02 0 0 Z " fill="#A361D2" transform="translate(343,35)"/>
<path d="M0 0 C0.33 0.66 0.66 1.32 1 2 C3.02463255 2.65213292 3.02463255 2.65213292 5 3 C4.67 3.99 4.34 4.98 4 6 C3.01 6 2.02 6 1 6 C1 5.34 1 4.68 1 4 C0.34 3.67 -0.32 3.34 -1 3 C-0.67 2.01 -0.34 1.02 0 0 Z " fill="#ED7E35" transform="translate(101,34)"/>
<path d="M0 0 C0.99 0.33 1.98 0.66 3 1 C2.34 4.63 1.68 8.26 1 12 C0.67 12 0.34 12 0 12 C0 8.04 0 4.08 0 0 Z " fill="#D97932" transform="translate(100,18)"/>
</svg>
